<svg id="Livello_1" data-name="Livello 1" xmlns="http://www.w3.org/2000/svg" xmlns:xlink="http://www.w3.org/1999/xlink" viewBox="0 0 364.54 367.54"><defs><style>.cls-1{fill:url(#linear-gradient);}.cls-2{fill:#467e20;}.cls-3{fill:#6fb22c;}.cls-4{fill:#ffd400;}.cls-5{fill:#a1c52a;}.cls-6{fill:#609926;}.cls-7{fill:none;stroke:#000;stroke-width:9.75px;}</style><linearGradient id="linear-gradient" x1="26.58" y1="275.99" x2="338.41" y2="95.96" gradientTransform="translate(184.95 -74.57) rotate(45)" gradientUnits="userSpaceOnUse"><stop offset="0" stop-color="#ccc"/><stop offset="0.27" stop-color="#d7d7d7"/><stop offset="0.7" stop-color="#f2f2f2"/><stop offset="1" stop-color="#bfbfbf"/></linearGradient></defs><title>logo</title><circle class="cls-1" cx="182.5" cy="185.97" r="180" transform="translate(-78.28 181.29) rotate(-45)"/><path class="cls-2" d="M360.22,189.67c-.14,37.21-11.24,74.48-34.36,103.94a179.91,179.91,0,0,1-87,60.2c-69.89,22-148-1.67-194.07-58.57S-9.75,152.18,30.89,89.82c40.46-62.07,118.68-92,190.44-75.24,70.08,16.36,125,75.19,136.58,146.23a184.74,184.74,0,0,1,2.31,28.86c0,.59,1.91-2.22,2-2.44.76-1.21,2.5-3.42,2.5-4.95-.3-76.84-50.22-146.88-123.39-171.11C168.47-13,86.9,13.07,40.58,74,18.27,103.39,3.58,138.77.76,175.67A181.2,181.2,0,0,0,27,284.29c40.77,66,121.64,99.06,197,80.24,71.52-17.88,126.69-80.79,138.47-153.19a185,185,0,0,0,2.34-29.06c0-.59-1.91,2.22-2,2.44C362,185.94,360.23,188.13,360.22,189.67Z" transform="translate(-0.23 -2.23)"/><path class="cls-3" d="M143.82,20.07S318.45,250.8,255.45,341.48Z" transform="translate(-0.23 -2.23)"/><path class="cls-4" d="M255.45,341.48S90.94,258.17,143.82,20.07Z" transform="translate(-0.23 -2.23)"/><path class="cls-5" d="M255.45,341.48s-177,3.2-177.14-165.16Z" transform="translate(-0.23 -2.23)"/><path class="cls-6" d="M78.31,176.32s79.74,16.44,177.14,165.16Z" transform="translate(-0.23 -2.23)"/><path class="cls-7" d="M95,151.6a16.86,16.86,0,0,0-14.19-7.9,17.09,17.09,0,0,0-16.67,16.67,16.8,16.8,0,0,0,16.67,16.68A17.59,17.59,0,0,0,91.6,173c3.17-2.68,4.34-5.75,4.49-9.75H82.92" transform="translate(-0.23 -2.23)"/><path class="cls-7" d="M169.9,147.78a16.28,16.28,0,0,0-10.85-4.08,17.09,17.09,0,0,0-16.67,16.67,16.8,16.8,0,0,0,16.67,16.68A17.59,17.59,0,0,0,169.87,173" transform="translate(-0.23 -2.23)"/><path class="cls-7" d="M132,178.75V142" transform="translate(-0.23 -2.23)"/><path class="cls-7" d="M218.05,142v34.56h9.36" transform="translate(-0.23 -2.23)"/><path class="cls-7" d="M234.65,136.8v36.75m-9.5-36.75h19" transform="translate(-0.23 -2.23)"/><path class="cls-7" d="M249.51,142v22.22c0,3.32,0,6.83,1.9,9.26s5.42,3.57,8.24,3.57,6.43-1.23,8.24-3.57,1.9-5.94,1.9-9.26V142" transform="translate(-0.23 -2.23)"/><path class="cls-7" d="M58.52,237.24l7.9-38,13.5,33.44,13.55-33.44,7.9,38" transform="translate(-0.23 -2.23)"/><path class="cls-7" d="M109.32,218.86A16.72,16.72,0,1,0,126,202.19,16.84,16.84,0,0,0,109.32,218.86Z" transform="translate(-0.23 -2.23)"/><path class="cls-7" d="M174.23,160.37a16.72,16.72,0,1,0,16.71-16.67A16.83,16.83,0,0,0,174.23,160.37Z" transform="translate(-0.23 -2.23)"/><path class="cls-7" d="M158.18,235.05c4.83,0,8.83-1,12.34-4.44a16.62,16.62,0,0,0-.44-23.93c-3.51-3.17-7.31-4-11.9-4H154v32.37Z" transform="translate(-0.23 -2.23)"/><path class="cls-7" d="M186.22,216v19h15.2m0-32.37h-15.2V216H201" transform="translate(-0.23 -2.23)"/><path class="cls-7" d="M237.33,237.24V200l30.86,32.56V200.49" transform="translate(-0.23 -2.23)"/><path class="cls-7" d="M276.09,237.24l15.41-38,15.36,38" transform="translate(-0.23 -2.23)"/><path class="cls-7" d="M28.16,178.75l15.41-38,15.35,38" transform="translate(-0.23 -2.23)"/><path class="cls-7" d="M306.08,178.75l15.4-38,15.35,38" transform="translate(-0.23 -2.23)"/><path class="cls-7" d="M207.27,200.49h5.9c3,0,5.9,0,8.38,1.85a9.24,9.24,0,0,1,3.71,7.9c0,6.38-4.11,10.17-10.2,10.07l11.71,16.93" transform="translate(-0.23 -2.23)"/><polyline class="cls-7" points="214.82 218.09 208.24 218.09 208.24 235.01"/><path class="cls-7" d="M102.11,143.42H108c3,0,5.9.05,8.39,1.85a9.23,9.23,0,0,1,3.7,7.9c0,6.39-4.1,10.18-10.2,10.08l11.71,16.92" transform="translate(-0.23 -2.23)"/><path class="cls-7" d="M280.88,142h5.9c3,0,5.9,0,8.39,1.85a9.22,9.22,0,0,1,3.7,7.89c0,6.39-4.11,10.18-10.2,10.08l11.71,16.93" transform="translate(-0.23 -2.23)"/><polyline class="cls-7" points="288.44 159.59 281.86 159.59 281.86 176.52"/></svg>